<svg xmlns="http://www.w3.org/2000/svg" viewBox="0 0 380.84 458.38"><defs><style>.cls-1{fill:#b3b3b3;}.cls-2{fill:#41378c;}.cls-3{fill:#fce3c3;}.cls-4{fill:#edcdab;}.cls-5{fill:#fff;}.cls-6{fill:#ff3c3c;}.cls-7{fill:#263364;}.cls-8{fill:#afe6ff;}.cls-9{fill:#5d4658;}.cls-10{fill:#ff9e7f;}.cls-11{fill:#2979ff;}.cls-12{fill:#b4b6bb;}.cls-13{fill:#a5a5b5;}.cls-14{fill:#fcccab;}.cls-15{fill:#e87d09;}.cls-16{fill:#fa870a;}.cls-17{fill:#efefef;}.cls-18{fill:#965028;}.cls-19{fill:#05cdff;}.cls-20{fill:#a0ebff;}.cls-21{fill:#6e64c3;}.cls-22{fill:#fa503c;}.cls-23{fill:#d25a50;}.cls-24{fill:#39ae96;}.cls-25{fill:#fa735f;}.cls-26{fill:#ffc305;}.cls-27{fill:#c8e6eb;}.cls-28{fill:#dafffb;}.cls-29{fill:#97f4ec;}.cls-30{fill:#ffd23c;}.cls-31{fill:#ffe65a;}.cls-32{fill:#fab9af;}.cls-33{fill:#fa968c;}.cls-34{fill:#ff640a;}.cls-35{fill:#ffdc8c;}.cls-36{fill:#46738c;}.cls-37{fill:#1e87dc;}.cls-38{fill:#2896ff;}.cls-39{fill:#5acbe5;}.cls-40{fill:#6ee1ff;}.cls-41{fill:#3c82af;}.cls-42{fill:#b6fff6;}.cls-43{fill:#32285f;}.cls-44{fill:#827ddc;}.cls-45{fill:#13e275;}.cls-46{fill:#4b6ebc;}.cls-47{fill:#3c5064;}.cls-48{fill:#9e693e;}.cls-49{fill:#1c9585;}.cls-50{fill:#845430;}.cls-51{fill:#41b4e6;}.cls-52{fill:#4d4677;}.cls-53{fill:#c5ffff;}</style></defs><g id="Layer_2" data-name="Layer 2"><g id="Layer_1-2" data-name="Layer 1"><path class="cls-1" d="M314,362.61c22.43-13,22.36-45.41-.12-58.32l-6.6-3.79a93,93,0,0,0-93,.2L97.2,368.61c-22.43,13-22.36,45.41.12,58.32l6.57,3.77a93.06,93.06,0,0,0,93-.19Z"/><path class="cls-1" d="M340.11,246.54c1-21.95,14.94-33.13,27-51.46,30.53-46.23,6.11-110.78-34.89-116.88C290.53,72,314.63,10.94,245.84,1.82c-99.72-13.23-159,47.82-174.44,115.8-10.62,46.85-3,56.14-34.72,80.56-68.37,52.54-20.24,159,39.25,170.29,74.52,14.17,36.26,9.28,108.77-9.75,47.87-12.57,91.74,10.81,127.5-20.6S339.14,268.55,340.11,246.54Z"/><path class="cls-2" d="M279.67,110.05c-1.7,17-8.32,62.32-6.83,69.78,1.7,8.48,23.67,49.2,57.07,48.89,15.87-.15,26.2-12.67,26.2-26.5,0-10.69.6-35,.9-48.07s.51-44.9-10.68-53.48C330.31,88.38,316,86,309.39,85.42,299.67,84.51,282,86.33,279.67,110.05Z"/><path class="cls-3" d="M289.16,93.75c-9.35,5.37-18.64,20.07-21.33,42.54l-20.71,25.94,11,5.52s20.32-19.57,23.34-24.33S289.16,93.75,289.16,93.75Z"/><path class="cls-4" d="M277.73,139.3c1.68-.28,2.93,1.72,4.4,2.57,3-9.23,7-48.12,7-48.12-8.93,5.11-17.78,18.75-20.92,39.49C269.29,135.48,275.49,139.67,277.73,139.3Z"/><path class="cls-5" d="M283.62,135.49c2.68-14.24,5.54-41.74,5.54-41.74-8.33,4.77-18.29,15.85-22.28,34.06C271.57,134.91,277.65,135.13,283.62,135.49Z"/><path class="cls-6" d="M302.14,93.9l29.57,16.55a12.51,12.51,0,0,1,6.4,10.81c.21,26.46-1.27,23.33-3,66.11a7.55,7.55,0,0,1-4.25,6.52,46.13,46.13,0,0,1-23.63,4.57c-9.47-.87-26.94-10.34-37.06-19.75a8.39,8.39,0,0,1-2.66-6.65c.75-12.37,10.53-22.79,9.71-55.47C277.25,111.59,283.84,84.87,302.14,93.9Z"/><ellipse class="cls-5" cx="307.81" cy="106.77" rx="11.55" ry="7.04"/><path class="cls-4" d="M302.21,109c4.26,2.52,8.34,2,12.29-.44a4.09,4.09,0,0,0,2-3.49V85l-16.77,3.57v15.93A5.16,5.16,0,0,0,302.21,109Z"/><path class="cls-3" d="M300.94,106.11c4-.48,9.46-4.32,13.65-7.86.92-.78,7.46-8.38,7.46-12.5,0-10-8.14-16-16.56-16-5.26,0-10.71.8-13.53,5.24-1.08,1.71-1.2,6.66-1.09,9.36C291,85.83,291.87,107.18,300.94,106.11Z"/><path class="cls-7" d="M325.77,67.35c-5.25-10.9-18.68-11.68-28.36-6.84-7.67,3.84-22.91,10.76-6.68,23,7.44,5.62,22.63-4.73,22.63-4.73-1.91,1.71-1.54,7,1.87,10.09l4.33-3.34-1.1,5.24c-3.6,3.83-2.09,10.47-2.09,10.47,0-3,7-9.65,8.82-13.71C326.91,83.78,329.59,75.27,325.77,67.35Z"/><path class="cls-4" d="M315.19,89.09c0,2.87.53,5.24,2.32,5.24s3.9-3.8,3.9-6.66-.54-3.91-2.32-3.91S315.19,86.23,315.19,89.09Z"/><path class="cls-3" d="M314.67,87.86c0,2.86.54,5.24,2.32,5.24s4.39-3.42,4.39-6.29-1-4.29-2.8-4.29S314.67,85,314.67,87.86Z"/><path class="cls-8" d="M164,363.55c2.81-1.67,3.35-4.85,1.44-6.13l-25.94-13.71-7,2c-2.23,1.38-.94,4.83.6,6.08,4.5,3.66,15.48,10.12,15.48,10.12C156.36,366.39,160.71,365.5,164,363.55Z"/><path class="cls-5" d="M164.68,361.71c1-.78,2-3.62.1-4.91l-24.61-14.92-7.62,3.8c-1,1.28-.6,4.43,1.1,5.45a120.61,120.61,0,0,0,18,10.89C157.47,364.73,161.37,364.24,164.68,361.71Z"/><path class="cls-9" d="M165.16,357.14c-.9-3.79-4.19-5.66-9.91-9.93a31.17,31.17,0,0,1-9.49-10.81,100.71,100.71,0,0,0-12,2.52c0,.12,0,.25,0,.37-.05.56-1.26,1.22-1.3,1.75-.28,3.54-.39,5.5.53,7.25,2,3.87,19.19,12.54,23,13.86S166.06,360.91,165.16,357.14Z"/><path class="cls-10" d="M136.48,343.48c1.58.79,2.87,1.34,2.78,0a18.39,18.39,0,0,1-.13-2.11,2.38,2.38,0,0,1,2.13-2.13,29.44,29.44,0,0,1,5.73-.68,18.92,18.92,0,0,1-3.17-8.1l-11.16-4.58a76,76,0,0,1,.53,15.49A27,27,0,0,0,136.48,343.48Z"/><path class="cls-8" d="M135,382.43c1.89-1.37,2.73-4.16.8-5.47l-25.11-13.5a.75.75,0,0,0-.71,0l-6.82,1.2c-2.35,1.14-1.86,5.37.12,7.06A60.07,60.07,0,0,0,120.89,383C125.65,385.1,130.68,385.62,135,382.43Z"/><path class="cls-5" d="M135,381.38a2.94,2.94,0,0,0,.35-5.1l-24.67-15a.72.72,0,0,0-.71,0l-6.44,3.12c-2.35,1.14-2.24,4.53-.26,6.24A62,62,0,0,0,121,381.72C125.77,383.79,129.94,384.31,135,381.38Z"/><path class="cls-9" d="M135.66,377.36c-.19-.84-1.71-3.46-4.72-5.95-1.67-1.39-3.64-2.89-5.72-4.34a31.35,31.35,0,0,1-9.51-10.9c-2.68.54-5.58.55-8.23,1l-3.75.61c0,.11,0,.22,0,.33,0,.48-1.2,1.29-1.23,1.75-.31,3.77-.42,6.47.54,8.31,2,3.85,16.82,12.43,20.66,13.48C129.57,383.26,136.49,381.15,135.66,377.36Z"/><path class="cls-10" d="M103.25,360.65c1.87,1.13,3.15,2.4,5.41,2.85,0-1.54-.85-1.91.06-3.46,1.35-2.29,6.5-3.28,7.9-2.3a39.48,39.48,0,0,1-5.19-14.12l-8.75,2.18A70.49,70.49,0,0,1,103.25,360.65Z"/><polygon class="cls-11" points="128.57 231.81 153.11 182.51 108.39 190.3 128.57 231.81"/><path class="cls-12" d="M128.81,183.56c-3.41,11,.55,83.44,1.8,96s16.2-7.21,20.35-12.8,8.32-57.75,5.54-79.38C153.86,166.79,134.76,164.39,128.81,183.56Z"/><path class="cls-13" d="M147.73,203.24s-.32-22.68-.76-31.78c-6.58-3-14.65.81-18.16,12.11-2.33,7.52-1.25,49.4.52,75.68.91-9.9,1.44-13.64,3.2-16.17A47.74,47.74,0,0,0,140,225.66S141.62,206.47,147.73,203.24Z"/><path class="cls-12" d="M155.81,236.14S145.89,307.72,146,330c-4.23,3.27-11.84,3.57-14.13,1.37-.71-6.64-3.5-44.24-1.83-54a193.78,193.78,0,0,1,6.77-26Z"/><path class="cls-12" d="M120.61,260.74c-5,75.41-7.3,71.38-5.23,86.94-2.68,5.69-13.27,3.91-15.86,1.18-.64-.67-5.25-49.07-3.12-58.25,2.24-9.63,9.94-21.91,9.94-21.91Z"/><path class="cls-12" d="M101,191.2C96.9,202,95.42,280,95.84,292.56s21.12,2.77,22.09-4.11c6.33-44.71,18.07-68.83,14.44-89.27S108.18,172.46,101,191.2Z"/><path class="cls-12" d="M130.36,229.75l4.87-3.3a9.63,9.63,0,0,0,4-5.82l1.08-5.17a9.87,9.87,0,0,0-4.13-10.17l-4.36-3Z"/><path class="cls-14" d="M176,136.23l-23.83-49c-8.07-12.14-20.93,7.47-11.93,18.54,8.54,14.64,17.08,27.51,30,41.93C173,142.15,172.4,141.31,176,136.23Z"/><path class="cls-14" d="M209.69,115.93l-38.18,16.25c-1.28,6-1.35,8.66-1.74,14.75l1.18.54c12.27-4.23,27.83-14.64,43.83-25.9Z"/><path class="cls-13" d="M99.09,183.27c.19,6.24.43,13.08.71,20.73,0,0,11.34,8.24,25.69,6.82a46.14,46.14,0,0,0,31.66-16.35,19.5,19.5,0,0,1-3.67-10.92Z"/><path class="cls-15" d="M137.87,103.58l7.93,11.22a48.59,48.59,0,0,1,4.87-3.68c3.66-2.4,7.4-4.74,11.16-7a9,9,0,0,1,.6-.75L151.07,85c-1-1.72-1.47.33-2.59,2C144.74,92.38,141.45,98.09,137.87,103.58Z"/><path class="cls-5" d="M144.58,115.26l2.28,3.39a1.28,1.28,0,0,0,1.46.18c2.79-1.33,11.45-5.9,16.64-13.69a1.06,1.06,0,0,0,0-1.32l-2-3.34a1.37,1.37,0,0,0-1.94.14c-2.55,2.63-9.34,9.32-15.87,12.81A1.2,1.2,0,0,0,144.58,115.26Z"/><path class="cls-16" d="M132.17,78.41a59.86,59.86,0,0,0-34.43,25,16.42,16.42,0,0,0-2.54,7.29C91.57,146,96.8,174,97.33,196a7.47,7.47,0,0,0,4.26,6.53,46.11,46.11,0,0,0,23.68,4.57,57.13,57.13,0,0,0,15.31-3.46c1.26-.48,5.06-2.25,5.7-2.59a48.73,48.73,0,0,0,10.23-7.29c1.88-1.74.11-4.3,0-6.85-.74-12.39-1.25-48.21-.43-80.95C156,101,155.3,72.17,132.17,78.41Z"/><path class="cls-14" d="M208.23,117.53s7.35-7.42,10.53-8.55c2.23-.8,8.18-3.36,10.12-.88,1.81,2.3,2.29,12-.94,14.51-2.74,2.16-15.05-.07-15.05-.07Z"/><path class="cls-13" d="M116.35,208.52s-2.83,14.11-15.66,19l2.36-2.12A14.89,14.89,0,0,0,108,214l-.13-7Z"/><path class="cls-17" d="M115.54,346.81c-4.41,3.45-11.74,3.36-15.87,1.54a1.16,1.16,0,0,0-1.63.95A31.59,31.59,0,0,0,99,360.8c3.26,3.43,15.35,3.56,18.72-3.6-.49-3.74-.79-6.75-.9-9.82A.78.78,0,0,0,115.54,346.81Z"/><path class="cls-12" d="M146.1,321.84c-4.18,3.45-11.12,3.36-15,1.54a1.11,1.11,0,0,0-1.55,1,33.12,33.12,0,0,0,.91,11.49c3.09,3.43,14.54,3.56,17.74-3.6-.47-3.74-.75-6.75-.86-9.82A.73.73,0,0,0,146.1,321.84Z"/><path class="cls-4" d="M132.93,91.74c-4.44,2.63-8.69,2-12.8-.46A4.26,4.26,0,0,1,118,87.64V66.78l17.47,3.72V87.1A5.37,5.37,0,0,1,132.93,91.74Z"/><path class="cls-3" d="M137.35,84.45c-4.21.07-10.41-4.18-14.75-7.84-.95-.81-.31-7.63-1.33-8.43-3.93-3.09-9.47-.26-9.47-4.52,0-10.37,8.42-16.61,17.14-16.61,5.45,0,11.09.83,14,5.42a19,19,0,0,1,2.26,8.78C145.14,62.82,143.52,84.35,137.35,84.45Z"/><path class="cls-18" d="M126.52,57.34a10,10,0,0,0,7.85,4.25c14.79,0,19-11.88,15.24-17.48-4.24-6.23-8-1.24-12.78-3.58-6.28-3.09-21.88-5.64-27.32,5.65-4,8.2-2.74,15.43-1,19.34,1.91,4.19,9.14,11.11,9.14,14.2l1.9-6.13.24-6,3.2-.83h0a4.27,4.27,0,0,0,3.39-4.1Z"/><path class="cls-4" d="M124.78,66.88c0,3-.58,5.46-2.51,5.46s-4.23-4-4.23-7,.59-4.07,2.52-4.07S124.78,63.89,124.78,66.88Z"/><path class="cls-3" d="M125.35,65.58c0,3-.58,5.46-2.51,5.46s-4.75-3.56-4.75-6.54,1.1-4.47,3-4.47S125.35,62.61,125.35,65.58Z"/><polygon class="cls-19" points="217.27 200.86 210.98 197.54 210.98 314.2 217.27 317.51 217.27 200.86"/><polygon class="cls-20" points="217.27 200.86 223.56 197.54 223.56 314.15 217.27 317.51 217.27 200.86"/><polygon class="cls-19" points="297.64 246.98 291.35 243.66 291.35 360.31 297.64 363.63 297.64 246.98"/><polygon class="cls-20" points="298.33 246.98 303.93 243.66 303.93 360.26 298.33 363.63 298.33 246.98"/><polygon class="cls-19" points="82.4 277.79 76.11 274.47 76.11 391.12 82.4 394.44 82.4 277.79"/><polygon class="cls-20" points="82.4 277.79 88.69 274.47 88.69 391.07 82.4 394.44 82.4 277.79"/><polygon class="cls-19" points="163.46 323.9 157.17 320.58 157.17 437.24 163.46 440.56 163.46 323.9"/><polygon class="cls-20" points="163.46 323.9 169.05 320.58 169.05 437.19 163.46 440.56 163.46 323.9"/><path class="cls-20" d="M314,242.09c22.43-13,22.36-45.41-.12-58.31l-6.6-3.8a93.07,93.07,0,0,0-93,.2L73.59,259.23c-22.42,13-22.35,45.41.13,58.31l6.56,3.77a93.06,93.06,0,0,0,93-.19Z"/><path class="cls-5" d="M314,234.86c22.43-13,22.36-45.41-.12-58.32l-6.6-3.79a93,93,0,0,0-93,.2L83,248.81c-22.43,13-31.79,48.59-9.31,61.5l6.57,3.77a93.06,93.06,0,0,0,93-.19Z"/><path class="cls-21" d="M360.2,179.45c3.74-1.93,8.51-3.58,6.13-7.17-2.24-3.37-7.92-4.78-13.3-4-6.45.89-30.45,17.71-33,20.84s-1.8,7.33.89,9,5.68,1.49,9.11,0S355.26,182,360.2,179.45Z"/><path class="cls-2" d="M360.2,177c3.74-1.93,8.51-3.58,6.13-7.17-2.24-3.37-7.92-4.78-13.3-4-6.45.89-30.45,17.71-33,20.84s-1.8,7.33.89,9,5.68,1.49,9.11,0S355.26,179.53,360.2,177Z"/><path class="cls-3" d="M250.1,158.59l-15.45,13.16,1.86,6.43s26.32-12.58,31.75-20.45Z"/><polygon class="cls-20" points="289.41 216.1 238.63 187.63 317.9 196.61 317.88 198.96 289.41 216.1"/><polygon class="cls-19" points="289.57 213.73 238.8 185.26 267.26 168.13 318.04 196.6 289.57 213.73"/><path class="cls-3" d="M324.89,148.34c.6,9.77,2.33,20.38,4.45,24.18l14.81,2.9c.78-9.73-.55-21.31-1.07-28.91Z"/><path class="cls-4" d="M343.66,154c-.22-2.72-.44-5.26-.59-7.46l-18.18,1.84c.11,1.86.27,3.76.46,5.62C332.1,156.32,338.39,157,343.66,154Z"/><path class="cls-3" d="M292.08,182s-8.52-3.67-9.72-3.73a3.56,3.56,0,0,0-2.22.83s-.36.24.12.48,3.49,1.57,3.49,1.57c-.35,1.83-7.45.3-7.45.3s1.86,7.63,2.52,8.35,5.88,1.2,7.17.91c4.06-.93,5.77-1.2,5.77-1.2Z"/><path class="cls-3" d="M334.36,165.66s-37.63,16.19-44.79,16.89c-1.87,2.56-1.32,4.14.25,6.91,0,0,33.51,2.25,54.22-14.13Z"/><polygon class="cls-20" points="290.99 214.45 289.6 216.08 226.62 150.27 228.03 148.51 278.81 176.98 290.99 214.45"/><polygon class="cls-7" points="289.57 216.1 238.8 187.63 226.61 150.17 277.39 178.64 289.57 216.1"/><path class="cls-3" d="M230.22,165.46s5.14.91,7,3.63a8.08,8.08,0,0,1,.76,1.53,9.69,9.69,0,0,1-2,9.78l-1.09,1.24s-3.14-2.25-4.05-4.68S228.1,165.16,230.22,165.46Z"/><path class="cls-5" d="M323.91,149.27a20.47,20.47,0,0,0,20.49,0A139.6,139.6,0,0,0,339,119.58c-1.53-5.33-6.7-6.57-11.68-4.11h0a7.48,7.48,0,0,0-4.05,8S323.12,136.41,323.91,149.27Z"/><path class="cls-5" d="M324.11,148.49c11.66,6.24,18.46,1.09,20.49,0"/><path class="cls-3" d="M261.05,248s-31.27-15.65-37.48-18.24L219.74,235s16.46,16.14,39.16,25.68Z"/><path class="cls-22" d="M265,236.07c-1.46,5.85-4,7.33-7.51,5.9-9.15-3.74-20.17-9-28.64-10.79a2.7,2.7,0,0,0-1.93.32A10.5,10.5,0,0,0,222,237a3.22,3.22,0,0,0,.81,3.29c4.36,4.42,20.58,19.73,38.79,22.85Z"/><ellipse class="cls-1" cx="261.03" cy="410.56" rx="40.67" ry="22.1"/><path class="cls-7" d="M243.63,390.44c-2.41-1.39-4.37-.32-4.37,2.41a9.55,9.55,0,0,0,4.37,7.45c2.41,1.39,4.37.32,4.37-2.41A9.54,9.54,0,0,0,243.63,390.44Z"/><path class="cls-7" d="M242.87,402.67c2.54-.26,3.87-1.36,4.37-2.45l-6.18-10.32c-1.39.33-3.87,1.51-4.55,3.05Z"/><path class="cls-7" d="M240.52,392.23c-2.41-1.39-4.37-.31-4.37,2.41a9.57,9.57,0,0,0,4.37,7.46c2.41,1.39,4.37.31,4.37-2.41A9.53,9.53,0,0,0,240.52,392.23Z"/><ellipse class="cls-5" cx="240.5" cy="397.17" rx="2.63" ry="4.56" transform="translate(-170.73 181.59) rotate(-31.14)"/><ellipse class="cls-7" cx="290.06" cy="394.67" rx="6.11" ry="3.53" transform="translate(-197.74 438.85) rotate(-58.86)"/><path class="cls-7" d="M290.83,402c-2.53-.26-3.86-1.36-4.37-2.45l6.19-10.32c1.38.33,3.86,1.51,4.54,3.05Z"/><path class="cls-7" d="M293.19,391.53c2.41-1.39,4.37-.31,4.37,2.41a9.57,9.57,0,0,1-4.37,7.46c-2.41,1.39-4.38.32-4.38-2.41A9.54,9.54,0,0,1,293.19,391.53Z"/><path class="cls-5" d="M293.19,393c1.67-1,3-.21,3,1.67a6.62,6.62,0,0,1-3,5.17c-1.68,1-3,.22-3-1.67A6.64,6.64,0,0,1,293.19,393Z"/><path class="cls-7" d="M235.3,420.06c2.42-1.39,4.38-.32,4.38,2.41a9.55,9.55,0,0,1-4.38,7.46c-2.41,1.39-4.36.31-4.36-2.41A9.5,9.5,0,0,1,235.3,420.06Z"/><path class="cls-7" d="M236.05,432.3c-2.53-.26-3.86-1.36-4.37-2.45l6.19-10.32c1.38.33,3.86,1.51,4.55,3Z"/><path class="cls-7" d="M238.41,421.86c2.41-1.4,4.36-.32,4.36,2.41a9.56,9.56,0,0,1-4.36,7.45c-2.41,1.39-4.37.32-4.37-2.41A9.55,9.55,0,0,1,238.41,421.86Z"/><path class="cls-5" d="M238.41,423.4c1.66-1,3-.22,3,1.66a6.59,6.59,0,0,1-3,5.13c-1.67,1-3,.22-3-1.65A6.55,6.55,0,0,1,238.41,423.4Z"/><path class="cls-7" d="M294.86,416.52c-2.41-1.39-4.36-.32-4.36,2.41a9.54,9.54,0,0,0,4.36,7.45c2.42,1.39,4.37.32,4.37-2.41A9.53,9.53,0,0,0,294.86,416.52Z"/><path class="cls-7" d="M294.11,428.76c2.54-.27,3.86-1.36,4.37-2.45L292.29,416c-1.38.33-3.86,1.5-4.54,3Z"/><path class="cls-7" d="M291.75,418.32c-2.41-1.39-4.36-.32-4.36,2.41a9.56,9.56,0,0,0,4.36,7.46c2.42,1.39,4.37.31,4.37-2.41A9.49,9.49,0,0,0,291.75,418.32Z"/><path class="cls-5" d="M291.75,419.67c-1.75-1-3.17-.23-3.17,1.75a6.93,6.93,0,0,0,3.17,5.41c1.76,1,3.18.22,3.18-1.75A6.91,6.91,0,0,0,291.75,419.67Z"/><path class="cls-4" d="M273.45,235.15c-4.13,3.81-8.74,4-13.62,2.15a4.79,4.79,0,0,1-3-3.58l-4.49-23,19.27.48,3.57,18.27A6.15,6.15,0,0,1,273.45,235.15Z"/><path class="cls-3" d="M241.79,211.87C244,223.24,247.66,231,254.47,230c6.63-1,.83-13.88,4.8-18.82.88-1.08,8.39-1.35,9.33-2.45,3.64-4.23-3.38-23.37-12.93-21.51-6,1.17-12,3.28-14.19,8.94C240.64,198.29,241.49,210.34,241.79,211.87Z"/><path class="cls-4" d="M251.82,213.2c.86,3.22,2.18,5.72,4.27,5.17s3.44-5.48,2.58-8.7-1.79-4.22-3.88-3.67S251,210,251.82,213.2Z"/><path class="cls-3" d="M250.85,212c.86,3.22,2.18,5.72,4.27,5.17s4.11-5.2,3.27-8.41-2.47-4.51-4.56-4S250,208.74,250.85,212Z"/><path class="cls-8" d="M206.62,413.8a2.32,2.32,0,0,0,.28-4l-19.49-11.83a.62.62,0,0,0-.56,0l-5.09,2.47c-1.86.9-1.77,3.59-.2,4.93,1.79,1.54,5.09,4.9,14,8.75C199.3,415.71,202.6,416.11,206.62,413.8Z"/><path class="cls-8" d="M236.43,392.22a2.39,2.39,0,0,0,.29-4.13l-20-12.11a.6.6,0,0,0-.58,0L211,378.47c-1.9.93-1.81,3.67-.21,5.06,1.84,1.57,5.22,5,14.33,9C228.93,394.17,232.31,394.59,236.43,392.22Z"/><path class="cls-23" d="M237.24,388.21c-.15-.69.44-5.53-2-7.55-1.35-1.12-4.25-3.47-6.28-3.61-4.34-.3-14-6.26-17.37-2.53-1.86,2-1.12,5.53-.76,6.24,1.62,3.11,13.61,10.05,16.72,10.91C232.31,393,237.91,391.27,237.24,388.21Z"/><path class="cls-23" d="M207.56,409.58c-.15-.69.44-5.53-2-7.55-1.35-1.12-4.25-3.47-6.28-3.61-4.34-.3-14-6.26-17.37-2.53-1.86,2-1.12,5.53-.76,6.24,1.62,3.11,13.62,10.05,16.73,10.91C202.63,414.35,208.23,412.64,207.56,409.58Z"/><path class="cls-3" d="M199.45,407.49a6.93,6.93,0,0,1-3.38-5.24c-1.55-11.53-8.59-65.29-6.69-76,2.12-12,11-15.55,17.32-15.2s4.94,29.69,4.94,29.69l-5.58,4.42a58.88,58.88,0,0,1,3.54,16.16c.67,9.07-5.17,19.89-4,43.48C205.74,407.52,202.8,409.33,199.45,407.49Z"/><path class="cls-3" d="M219.14,327.37c.8,22.06,8.6,53.73,8.6,53.73,2.16,7.22,7,4.86,7.3,1.87,1.74-17.1,2.08-18.07,2.17-31a129.78,129.78,0,0,0-2.37-24.5Z"/><path class="cls-24" d="M208.46,310.35l8.84,3.18c8.83,3.18,59,23.33,59,23.33l22.23-11.71c5.13,40.24-13.62,40.84-23.33,44.34-4.62,1.67-37.42-8.24-45.55-11.42s-20.64-11-20.64-11C199.94,336.87,200.35,321.76,208.46,310.35Z"/><path class="cls-25" d="M272.54,226.14c-24.9,6.71-31.74,21.26-31.74,21.26-2.85,38.19-1.91,57-1.39,78.48.06,2.65,5.43,5,7.82,6.1,4.59,2.2,9.26,12.43,18.78,11.29,15.62-1.88,26.44-9.75,29.55-12.62,1.78-1.65,5.62-5.83,5.79-11.84.37-13.06,1.24-41.18-2.57-71.82C298.78,242.26,294.42,220.25,272.54,226.14Z"/><path class="cls-22" d="M251.62,243.22c-3.8-1.14-10.4,2-12.57,5.31-1.62,1.95-3.21,3.9-.11,3.12v43.27c7.28-9.15,13.8-25.43,19.72-36.49C261.79,252.59,258,245.14,251.62,243.22Z"/><path class="cls-3" d="M214.58,290s-32.32-14.47-37.24-19.18l-3.61,5.53s14.62,19.27,38.71,26.37Z"/><path class="cls-25" d="M218.49,278.07c-1.46,5.85-4,7.33-7.51,5.9-9.51-3.88-24.53-7.6-29.61-11a11.09,11.09,0,0,0-5.84,6,3.22,3.22,0,0,0,.81,3.28c4.37,4.43,20.59,19.74,38.79,22.86Z"/><path class="cls-25" d="M215.6,285.24c3.23-10.64,12.87-23.93,23.49-36.71,2.17-3.31,8.77-6.45,12.57-5.31,6.34,1.92,10.17,9.37,7,15.21-8.41,15.7-22.82,38.84-47.4,48.06C211.31,306.49,214.16,287.93,215.6,285.24Z"/><path class="cls-3" d="M178.91,272.41s1.06-5.58.36-7.22c-.21-.52-.62-1.56-2.85-.23-.51.3-.56-1.13-5.46-3.46-.65-.31-2.9.07-3.05,1.51s-2.72,1.84-2.89,3.13-1,1.27-1.76,2.12c-.51.58.28,1.65,0,2.23a3,3,0,0,0,.11,2c.86,1.44,6.76,4.38,10.8,4.24S178.91,272.41,178.91,272.41Z"/><path class="cls-7" d="M298.83,415.41l-16.68-12.56a3.66,3.66,0,0,1,.25-6l14.17-8.92s-.3-1.8-3.21-2c-2.7-.21-20.75,6.94-23.44,8a15,15,0,0,0-4.22-.58,16.31,16.31,0,0,0-1.86.1l.05-.08s-19-7.62-22.28-6.81a4.72,4.72,0,0,0-3.69,3.46l12.63,6.35a3.66,3.66,0,0,1,.55,6.2l-18.36,13.83a3.09,3.09,0,0,0,1,4.53h0a3.11,3.11,0,0,0,3.64-.44l21-9.72a20.65,20.65,0,0,1,17.47.07l18.39,8.69a3.09,3.09,0,0,0,4.6-4.08Z"/><ellipse class="cls-21" cx="265.71" cy="397.1" rx="3.24" ry="1.75"/><rect class="cls-21" x="262.7" y="373.63" width="6.29" height="23.76"/><path class="cls-2" d="M259.09,365.63l-44.4-15.86S228.37,367,242.1,372.3s24.23,5,32.44,3.05a56.33,56.33,0,0,0,20.79-10.11Z"/><path class="cls-2" d="M313.05,258.41c-5.94-3-20.92,3-36.95,15.25-11.19,8.59-11.69,19-10.68,32S266,340.35,266,351c0,13.84-11.36,13.07-11.36,13.07,9.66,10,24.13,10.15,31.35,7.18,13.08-5.38,26.83-14.38,31.44-32,1.92-7.37,3.17-33.07,4.72-50C323.61,273,320.89,262.31,313.05,258.41Z"/><path class="cls-21" d="M231.93,362.38l-6.48-2.86a14.26,14.26,0,0,1-8.18-13.17V308.64h4.2v37.71a9.69,9.69,0,0,0,5.56,9l2.6,1.15a4.69,4.69,0,0,1,2.3,5.92Z"/><path class="cls-21" d="M215.15,318c-4.25-2.19-9.65-4.06-7-8.14,2.54-3.81,9-5.42,15.08-4.57,7.32,1,45.68,26.68,48.56,30.25s2,8.3-1,10.17-6.44,1.69-10.34,0S220.74,320.9,215.15,318Z"/><path class="cls-2" d="M215.15,315.23c-4.25-2.19-9.65-4.06-7-8.13,2.54-3.82,9-5.43,15.08-4.58,7.32,1,45.68,26.69,48.56,30.25s2,8.3-1,10.17-6.44,1.7-10.34,0S220.74,318.11,215.15,315.23Z"/><path class="cls-26" d="M298.81,233.59c-2-10.47-11.88-16.41-16.13-19.81s-5.95-15.29-5.95-15.29l-.1.09a38.27,38.27,0,0,0-4.91-12.17c-3.24-5.07-15.84-7.35-24.35.34-8.54,4.88-16-7.64-16,1.56,0,14.86,10.78,14.84,13.72,15.66s3.4,8.11,3.62,10.32c0,0,1.5.67,2-2s4.16-6.25,5.82-5.47c1.41.67,3.9,3,.18,9.12.46,2.52,1,5.4,1.49,8.17-1,7-5.76,19.26-5.28,26.23.57,8.21,15,17.83,27.74,14.15S300.8,244.06,298.81,233.59Z"/><path class="cls-27" d="M213.66,202l-9-5-10.29,4.83s7.59,4.45,8.28,4.78A13.71,13.71,0,0,0,214.4,206a2.07,2.07,0,0,0,1.32-1.63C215.72,203.52,214.9,202.64,213.66,202Z"/><path class="cls-28" d="M210.66,176.56H189.43l3.3,23.76h0c.26,1.87,3.42,3.36,7.29,3.36s7-1.49,7.29-3.36h0Z"/><ellipse class="cls-5" cx="200.05" cy="176.34" rx="10.51" ry="5.16"/><ellipse class="cls-29" cx="200.05" cy="176.34" rx="8.74" ry="3.72"/><path class="cls-30" d="M192.52,188.44l1.39,10.05c0,1.66,2.74,3,6.14,3s6.14-1.35,6.14-3l1.39-10.05Z"/><path class="cls-31" d="M207.58,188.61c0,2-3.37,3.7-7.53,3.7s-7.53-1.66-7.53-3.7,3.37-3.7,7.53-3.7S207.58,186.56,207.58,188.61Z"/><path class="cls-27" d="M228.27,248.49l-9-5L209,248.35s7.59,4.45,8.28,4.78a13.71,13.71,0,0,0,11.71-.58,2.07,2.07,0,0,0,1.32-1.63C230.34,250,229.51,249.16,228.27,248.49Z"/><path class="cls-28" d="M225.28,222.68H204.05l3.3,23.76h0c.27,1.88,3.43,3.36,7.3,3.36s7-1.48,7.29-3.36h0Z"/><ellipse class="cls-5" cx="214.66" cy="222.85" rx="10.51" ry="5.16"/><ellipse class="cls-29" cx="214.66" cy="222.85" rx="8.74" ry="3.72"/><path class="cls-32" d="M207.14,235.26l1.38,10.05c0,1.67,2.75,3,6.14,3s6.14-1.35,6.14-3l1.39-10.05Z"/><path class="cls-33" d="M222.19,235.12c0,2-3.37,3.7-7.53,3.7s-7.52-1.65-7.52-3.7,3.36-3.69,7.52-3.69S222.19,233.08,222.19,235.12Z"/><path class="cls-27" d="M184,301.09l-7.87-4.38-9,4.24s6.67,3.92,7.28,4.21a12,12,0,0,0,10.29-.51,1.83,1.83,0,0,0,1.16-1.43C185.85,302.44,185.12,301.67,184,301.09Z"/><path class="cls-28" d="M181.45,278.59H162.71l2.91,21h0c.23,1.66,3,3,6.44,3s6.21-1.3,6.44-3h0Z"/><ellipse class="cls-5" cx="172.08" cy="278.58" rx="9.22" ry="4.54"/><ellipse class="cls-29" cx="172.08" cy="278.58" rx="7.68" ry="3.27"/><path class="cls-29" d="M177,298.42c0,1.34-2.2,2.42-4.92,2.42s-4.92-1.08-4.92-2.42,2.2-2.41,4.92-2.41S177,297.08,177,298.42Z"/><path class="cls-34" d="M174.36,298.59a2.52,2.52,0,0,1-3,.94L163,273.2l3-.94Z"/><path class="cls-35" d="M166,272.26l-3.37-4.71.38,5.66A3.28,3.28,0,0,0,166,272.26Z"/><path class="cls-36" d="M163.78,269.16l-1.16-1.62.12,1.81A.78.78,0,0,0,163.78,269.16Z"/><path class="cls-37" d="M170.75,299.37a2.51,2.51,0,0,1-3-.73l6.45-26.86,3,.73Z"/><path class="cls-35" d="M177.2,272.51l-.44-5.78-2.6,5A3.23,3.23,0,0,0,177.2,272.51Z"/><path class="cls-36" d="M176.91,268.72l-.15-2-.83,1.61A.77.77,0,0,0,176.91,268.72Z"/><path class="cls-26" d="M170.63,299.28a2.54,2.54,0,0,1-2.87-1.26l11.09-25.3,2.88,1.26Z"/><path class="cls-35" d="M181.73,274l.58-5.77-3.45,4.51A3.25,3.25,0,0,0,181.73,274Z"/><path class="cls-36" d="M182.1,270.19l.2-2-1.1,1.44A.78.78,0,0,0,182.1,270.19Z"/><path class="cls-5" d="M179.88,278.59a.77.77,0,0,1,0,.15c0,1.28-3,3.13-7.82,3.13s-7.83-1.85-7.83-3.13a.77.77,0,0,1,0-.15h-1.42c-.16,2.57,4,4.68,9.22,4.68s9.38-2.1,9.22-4.68h-1.41Z"/><path class="cls-38" d="M154.87,205.13,127.8,220.54s0,1.21,0,1.66a1.41,1.41,0,0,0,.7,1.28l37.61,22.08a1.4,1.4,0,0,0,1.45,0l26.56-16.17a1.4,1.4,0,0,0,.67-1.13c0-.5,0-1.86,0-1.86l-38.48-21.26A1.43,1.43,0,0,0,154.87,205.13Z"/><path class="cls-7" d="M154.87,203.38l-26.39,15.91a1.41,1.41,0,0,0,0,2.42l37.61,22.09a1.4,1.4,0,0,0,1.45,0l26.56-16.17a1.41,1.41,0,0,0,0-2.43L156.3,203.36A1.41,1.41,0,0,0,154.87,203.38Z"/><path class="cls-5" d="M156.18,207.51l-21,12.66a1.12,1.12,0,0,0,0,1.93l29.93,17.57a1.15,1.15,0,0,0,1.16,0l21.13-12.87a1.13,1.13,0,0,0,0-1.93L157.32,207.5A1.11,1.11,0,0,0,156.18,207.51Z"/><polygon class="cls-39" points="158.22 211.07 153.12 225.98 141.54 220.88 158.22 211.07"/><polygon class="cls-40" points="158.22 211.07 173.49 224 141.54 220.88 158.22 211.07"/><path class="cls-31" d="M164.67,226.61c-2.74,0-5,1.49-5,3.34s2.23,3.34,5,3.34,5-1.5,5-3.34S167.41,226.61,164.67,226.61Z"/><circle class="cls-7" cx="47.19" cy="237.72" r="2.5"/><circle class="cls-7" cx="47.19" cy="231.09" r="5.62"/><circle class="cls-7" cx="47.19" cy="221.75" r="7.11"/><path class="cls-7" d="M58.62,212.07a6.91,6.91,0,1,1-6.9-6.9A6.9,6.9,0,0,1,58.62,212.07Z"/><path class="cls-7" d="M65.66,207.7a4.8,4.8,0,1,1-4.8-4.8A4.79,4.79,0,0,1,65.66,207.7Z"/><path class="cls-7" d="M75,213.36a3.86,3.86,0,1,0,3.86-3.86A3.85,3.85,0,0,0,75,213.36Z"/><path class="cls-7" d="M76.33,217.48a3.86,3.86,0,1,0,3.86-3.86A3.86,3.86,0,0,0,76.33,217.48Z"/><circle class="cls-7" cx="74.86" cy="210.58" r="3.52"/><circle class="cls-7" cx="81.24" cy="221.61" r="3.52"/><path class="cls-7" d="M62.68,209.5a5.83,5.83,0,1,0,5.82-5.82A5.83,5.83,0,0,0,62.68,209.5Z"/><circle class="cls-7" cx="57.48" cy="206.19" r="3.05"/><path class="cls-7" d="M69.18,205.65a3.31,3.31,0,1,1-3.31-3.31A3.31,3.31,0,0,1,69.18,205.65Z"/><path class="cls-7" d="M48.07,215.12a2.64,2.64,0,1,1-2.64-2.64A2.64,2.64,0,0,1,48.07,215.12Z"/><polygon class="cls-20" points="100.87 262.78 151.84 292.71 115.94 313.64 64.92 283.62 100.87 262.78"/><polygon class="cls-41" points="149.49 290.4 149.49 292.23 115.29 312.28 66.33 283.37 66.33 281.54 149.49 290.4"/><polygon class="cls-19" points="115.25 310.43 115.25 312.26 66.33 283.38 66.33 281.55 115.25 310.43"/><polygon class="cls-40" points="100.55 261.46 149.62 290.38 115.31 310.49 66.18 281.48 100.55 261.46"/><polygon class="cls-19" points="99.91 264.04 145.23 290.74 127.03 301.41 81.66 274.63 99.91 264.04"/><polygon class="cls-19" points="95.57 284.4 112.45 294.35 101.42 300.81 84.53 290.83 95.57 284.4"/><polygon class="cls-40" points="100.68 291.48 100.89 291.58 93.31 296.04 93.08 295.9 100.68 291.48"/><polygon class="cls-42" points="100.57 220.35 101.97 219.77 101.97 211.65 100.57 212.51 100.57 220.35"/><polygon class="cls-42" points="101.97 211.75 101.97 260.56 150.88 289.33 150.88 240.52 101.97 211.75"/><polygon class="cls-41" points="149.49 241.47 149.49 290.2 150.88 289.34 150.88 240.61 149.49 241.47"/><polygon class="cls-43" points="100.57 212.62 100.57 261.43 149.49 290.2 149.49 241.38 100.57 212.62"/><path class="cls-5" d="M101.68,261.06l45.16,26.28a.83.83,0,0,0,1.25-.71V244.92a.84.84,0,0,0-.41-.72l-45.16-26.4a.83.83,0,0,0-1.25.71v41.83A.84.84,0,0,0,101.68,261.06Z"/><path class="cls-34" d="M136.91,241.84a.63.63,0,0,1,1-.54l7.07,4.13a.73.73,0,0,1,.36.64v2.46a.73.73,0,0,1-1.1.64l-7-4a.65.65,0,0,1-.32-.57Z"/><path class="cls-34" d="M135.51,240.7v2.55a.61.61,0,0,1-.92.53l-7.16-4.17a.6.6,0,0,1-.3-.53v-2.57A.6.6,0,0,1,128,236l7.17,4.18A.67.67,0,0,1,135.51,240.7Z"/><path class="cls-34" d="M126.43,235.19v2.73a.58.58,0,0,1-.87.5l-9.93-5.79a.77.77,0,0,1-.38-.66v-2.76a.57.57,0,0,1,.86-.5l9.94,5.81A.79.79,0,0,1,126.43,235.19Z"/><path class="cls-44" d="M105.11,232.18l38.42,22.37a.72.72,0,0,0,1.07-.62v-2.36a.74.74,0,0,0-.35-.62l-38.42-22.47a.71.71,0,0,0-1.07.62v2.47A.73.73,0,0,0,105.11,232.18Z"/><path class="cls-45" d="M105.11,237.76l38.42,22.36a.71.71,0,0,0,1.07-.61v-2.37a.73.73,0,0,0-.35-.61l-38.42-22.47a.71.71,0,0,0-1.07.61v2.47A.76.76,0,0,0,105.11,237.76Z"/><path class="cls-30" d="M134.11,257.39a.68.68,0,0,1,1-.58l9.11,5.32a.73.73,0,0,1,.35.61v2.36a.71.71,0,0,1-1.06.61l-8.91-5.19a1,1,0,0,1-.52-.89Z"/><path class="cls-30" d="M105.85,239.52l27,15.81a1,1,0,0,1,.52.92v2.33a.65.65,0,0,1-1,.57l-27.32-15.9a.73.73,0,0,1-.36-.62v-2.5A.72.72,0,0,1,105.85,239.52Z"/><path class="cls-40" d="M105.11,248.9l38.42,22.36a.71.71,0,0,0,1.07-.61v-2.37a.73.73,0,0,0-.35-.61L105.83,245.2a.71.71,0,0,0-1.07.61v2.47A.73.73,0,0,0,105.11,248.9Z"/><path class="cls-44" d="M114.55,256.09a.32.32,0,0,1,.5-.28l29.89,17.53a.71.71,0,0,1,.35.62v2.39a.71.71,0,0,1-1.07.62l-29.13-17a1.1,1.1,0,0,1-.54-.94Z"/><path class="cls-44" d="M105.81,250.83l6.8,4a1.09,1.09,0,0,1,.54.94v2.51a.49.49,0,0,1-.75.42l-7.28-4.23a.73.73,0,0,1-.36-.62v-2.4A.7.7,0,0,1,105.81,250.83Z"/><path class="cls-40" d="M105.11,260l38.42,22.37a.72.72,0,0,0,1.07-.61v-2.37a.71.71,0,0,0-.35-.61l-38.42-22.47a.71.71,0,0,0-1.07.61v2.47A.71.71,0,0,0,105.11,260Z"/><path class="cls-46" d="M125.08,228.09c-.17-.11-.3,0-.3.35a.92.92,0,0,0,.3.73c.17.11.3-.06.3-.36A.9.9,0,0,0,125.08,228.09Z"/><path class="cls-47" d="M126.79,297.72l-1.54.86a.33.33,0,0,0,0,.57l1.65,1a.63.63,0,0,0,.61,0l1.51-.87a.33.33,0,0,0,0-.57l-1.63-1A.55.55,0,0,0,126.79,297.72Z"/><path class="cls-47" d="M123.37,295.7l-1.55.87a.34.34,0,0,0,0,.57l1.66,1a.59.59,0,0,0,.6,0l1.52-.86a.33.33,0,0,0,0-.57l-1.63-1A.57.57,0,0,0,123.37,295.7Z"/><path class="cls-47" d="M119.94,293.69l-1.54.86a.33.33,0,0,0,0,.57l1.66,1a.59.59,0,0,0,.6,0l1.51-.86a.33.33,0,0,0,0-.57l-1.64-1A.59.59,0,0,0,119.94,293.69Z"/><path class="cls-47" d="M96,279.59l-1.55.87a.33.33,0,0,0,0,.56l1.66,1a.61.61,0,0,0,.6,0l1.52-.87a.32.32,0,0,0,0-.56l-1.63-1A.59.59,0,0,0,96,279.59Z"/><path class="cls-47" d="M92.57,277.58l-1.54.86a.33.33,0,0,0,0,.57l1.65,1a.61.61,0,0,0,.6,0l1.52-.87a.33.33,0,0,0,0-.57l-1.63-1A.57.57,0,0,0,92.57,277.58Z"/><path class="cls-47" d="M89.15,275.57l-1.55.86a.34.34,0,0,0,0,.57l1.66,1a.59.59,0,0,0,.6,0l1.52-.86a.33.33,0,0,0,0-.57l-1.64-1A.53.53,0,0,0,89.15,275.57Z"/><path class="cls-47" d="M85.72,273.55l-1.54.87a.32.32,0,0,0,0,.56l1.65,1a.58.58,0,0,0,.61,0L88,275.1a.32.32,0,0,0,0-.56l-1.64-1A.57.57,0,0,0,85.72,273.55Z"/><path class="cls-47" d="M98.84,281.57l-1.54.87a.33.33,0,0,0,0,.57l19.24,11.11a.61.61,0,0,0,.6,0l1.52-.87a.33.33,0,0,0,0-.57L99.43,281.58A.65.65,0,0,0,98.84,281.57Z"/><path class="cls-47" d="M130.21,295.61l-1.54.87a.33.33,0,0,0,0,.57l1.65,1a.57.57,0,0,0,.6,0l1.52-.86a.33.33,0,0,0,0-.57l-1.63-1A.57.57,0,0,0,130.21,295.61Z"/><path class="cls-47" d="M126.79,293.59l-1.54.87a.33.33,0,0,0,0,.57l1.65,1a.61.61,0,0,0,.61,0l1.51-.86a.33.33,0,0,0,0-.57l-1.63-1A.62.62,0,0,0,126.79,293.59Z"/><path class="cls-47" d="M123.37,291.58l-1.55.87a.33.33,0,0,0,0,.56l1.66,1a.61.61,0,0,0,.6,0l1.52-.87a.32.32,0,0,0,0-.56l-1.63-1A.57.57,0,0,0,123.37,291.58Z"/><path class="cls-47" d="M119.94,289.57l-1.54.87a.32.32,0,0,0,0,.56l1.66,1a.61.61,0,0,0,.6,0l1.51-.87a.33.33,0,0,0,0-.57l-1.64-1A.57.57,0,0,0,119.94,289.57Z"/><path class="cls-47" d="M116.53,287.56l-1.55.86a.34.34,0,0,0,0,.57l1.66,1a.59.59,0,0,0,.6,0l1.52-.86a.33.33,0,0,0,0-.57l-1.64-1A.55.55,0,0,0,116.53,287.56Z"/><path class="cls-47" d="M113.1,285.54l-1.54.87a.33.33,0,0,0,0,.57l1.65,1a.61.61,0,0,0,.61,0l1.51-.86a.33.33,0,0,0,0-.57l-1.63-1A.57.57,0,0,0,113.1,285.54Z"/><path class="cls-47" d="M109.68,283.52l-1.55.87a.34.34,0,0,0,0,.57l1.66,1a.59.59,0,0,0,.6,0l1.52-.86a.33.33,0,0,0,0-.57l-1.63-1A.62.62,0,0,0,109.68,283.52Z"/><path class="cls-47" d="M106.25,281.51l-1.54.87a.32.32,0,0,0,0,.56l1.66,1a.61.61,0,0,0,.6,0l1.51-.87a.32.32,0,0,0,0-.56l-1.64-1A.57.57,0,0,0,106.25,281.51Z"/><path class="cls-47" d="M102.84,279.5l-1.55.87a.33.33,0,0,0,0,.56l1.66,1a.61.61,0,0,0,.6,0l1.52-.87a.33.33,0,0,0,0-.57l-1.64-1A.55.55,0,0,0,102.84,279.5Z"/><path class="cls-47" d="M99.41,277.49l-1.54.86a.33.33,0,0,0,0,.57l1.65,1a.61.61,0,0,0,.61,0l1.51-.86a.33.33,0,0,0,0-.57l-1.63-1A.57.57,0,0,0,99.41,277.49Z"/><path class="cls-47" d="M96,275.47l-1.55.87a.34.34,0,0,0,0,.57l1.66,1a.59.59,0,0,0,.6,0l1.52-.86a.33.33,0,0,0,0-.57l-1.63-1A.59.59,0,0,0,96,275.47Z"/><path class="cls-47" d="M92.57,273.46l-1.54.87a.32.32,0,0,0,0,.56l1.65,1a.61.61,0,0,0,.6,0L94.8,275a.32.32,0,0,0,0-.56l-1.63-1A.57.57,0,0,0,92.57,273.46Z"/><path class="cls-47" d="M89.15,271.44l-1.55.87a.33.33,0,0,0,0,.56l1.66,1a.61.61,0,0,0,.6,0l1.52-.87a.32.32,0,0,0,0-.56l-1.64-1A.55.55,0,0,0,89.15,271.44Z"/><path class="cls-47" d="M133.63,293.5l-1.54.87a.33.33,0,0,0,0,.57l1.66,1a.56.56,0,0,0,.6,0l1.51-.86a.33.33,0,0,0,0-.57l-1.64-1A.62.62,0,0,0,133.63,293.5Z"/><path class="cls-47" d="M130.21,291.49l-1.54.87a.32.32,0,0,0,0,.56l1.65,1a.61.61,0,0,0,.6,0l1.52-.87a.32.32,0,0,0,0-.56l-1.63-1A.57.57,0,0,0,130.21,291.49Z"/><path class="cls-47" d="M126.79,289.48l-1.54.86a.33.33,0,0,0,0,.57l1.65,1a.63.63,0,0,0,.61,0L129,291a.33.33,0,0,0,0-.57l-1.63-1A.57.57,0,0,0,126.79,289.48Z"/><path class="cls-47" d="M123.37,287.47l-1.55.86a.34.34,0,0,0,0,.57l1.66,1a.59.59,0,0,0,.6,0l1.52-.86a.33.33,0,0,0,0-.57l-1.63-1A.57.57,0,0,0,123.37,287.47Z"/><path class="cls-47" d="M119.94,285.45l-1.54.87a.33.33,0,0,0,0,.57l1.66,1a.56.56,0,0,0,.6,0l1.51-.87a.32.32,0,0,0,0-.56l-1.64-1A.57.57,0,0,0,119.94,285.45Z"/><path class="cls-47" d="M116.53,283.44l-1.55.87a.33.33,0,0,0,0,.56l1.66,1a.61.61,0,0,0,.6,0l1.52-.87a.32.32,0,0,0,0-.56l-1.64-1A.57.57,0,0,0,116.53,283.44Z"/><path class="cls-47" d="M113.1,281.42l-1.54.87a.32.32,0,0,0,0,.56l1.65,1a.63.63,0,0,0,.61,0l1.51-.87a.32.32,0,0,0,0-.56l-1.63-1A.57.57,0,0,0,113.1,281.42Z"/><path class="cls-47" d="M109.68,279.41l-1.55.87a.33.33,0,0,0,0,.56l1.66,1a.61.61,0,0,0,.6,0l1.52-.87a.33.33,0,0,0,0-.57l-1.63-1A.57.57,0,0,0,109.68,279.41Z"/><path class="cls-47" d="M106.25,277.4l-1.54.86a.33.33,0,0,0,0,.57l1.66,1a.59.59,0,0,0,.6,0l1.51-.86a.33.33,0,0,0,0-.57l-1.64-1A.57.57,0,0,0,106.25,277.4Z"/><path class="cls-47" d="M102.84,275.38l-1.55.87a.34.34,0,0,0,0,.57l1.66,1a.57.57,0,0,0,.6,0l1.52-.87a.32.32,0,0,0,0-.56l-1.64-1A.57.57,0,0,0,102.84,275.38Z"/><path class="cls-47" d="M99.41,273.37l-1.54.87a.32.32,0,0,0,0,.56l1.65,1a.63.63,0,0,0,.61,0l1.51-.87a.32.32,0,0,0,0-.56l-1.63-1A.59.59,0,0,0,99.41,273.37Z"/><path class="cls-47" d="M96,271.35l-1.55.87a.33.33,0,0,0,0,.56l1.66,1a.61.61,0,0,0,.6,0l1.52-.87a.32.32,0,0,0,0-.56l-1.63-1A.57.57,0,0,0,96,271.35Z"/><path class="cls-47" d="M92.57,269.34l-1.54.87a.32.32,0,0,0,0,.56l1.65,1a.61.61,0,0,0,.6,0l1.52-.87a.33.33,0,0,0,0-.57l-1.63-1A.57.57,0,0,0,92.57,269.34Z"/><path class="cls-47" d="M137.06,291.4l-1.55.87a.33.33,0,0,0,0,.56l1.66,1a.61.61,0,0,0,.6,0l1.52-.87a.32.32,0,0,0,0-.56l-1.64-1A.57.57,0,0,0,137.06,291.4Z"/><path class="cls-47" d="M133.63,289.39l-1.54.86a.33.33,0,0,0,0,.57l1.66,1a.61.61,0,0,0,.6,0l1.51-.87a.33.33,0,0,0,0-.57l-1.64-1A.57.57,0,0,0,133.63,289.39Z"/><path class="cls-47" d="M130.21,287.37l-1.54.87a.33.33,0,0,0,0,.57l1.65,1a.59.59,0,0,0,.6,0l1.52-.86a.33.33,0,0,0,0-.57l-1.63-1A.59.59,0,0,0,130.21,287.37Z"/><path class="cls-47" d="M126.79,285.36l-1.54.87a.32.32,0,0,0,0,.56l1.65,1a.58.58,0,0,0,.61,0l1.51-.87a.32.32,0,0,0,0-.56l-1.63-1A.57.57,0,0,0,126.79,285.36Z"/><path class="cls-47" d="M123.37,283.35l-1.55.87a.33.33,0,0,0,0,.56l1.66,1a.61.61,0,0,0,.6,0l1.52-.87a.32.32,0,0,0,0-.56l-1.63-1A.55.55,0,0,0,123.37,283.35Z"/><path class="cls-47" d="M119.94,281.33l-1.54.87a.32.32,0,0,0,0,.56l1.66,1a.61.61,0,0,0,.6,0l1.51-.87a.32.32,0,0,0,0-.56l-1.64-1A.59.59,0,0,0,119.94,281.33Z"/><path class="cls-47" d="M116.53,279.32l-1.55.86a.34.34,0,0,0,0,.57l1.66,1a.61.61,0,0,0,.6,0l1.52-.87a.33.33,0,0,0,0-.57l-1.64-1A.55.55,0,0,0,116.53,279.32Z"/><path class="cls-47" d="M113.1,277.31l-1.54.86a.33.33,0,0,0,0,.57l1.65,1a.61.61,0,0,0,.61,0l1.51-.86a.33.33,0,0,0,0-.57l-1.63-1A.57.57,0,0,0,113.1,277.31Z"/><path class="cls-47" d="M109.68,275.29l-1.55.87a.34.34,0,0,0,0,.57l1.66,1a.57.57,0,0,0,.6,0l1.52-.87a.32.32,0,0,0,0-.56l-1.63-1A.57.57,0,0,0,109.68,275.29Z"/><path class="cls-47" d="M106.25,273.28l-1.54.87a.32.32,0,0,0,0,.56l1.66,1a.61.61,0,0,0,.6,0l1.51-.87a.32.32,0,0,0,0-.56l-1.64-1A.59.59,0,0,0,106.25,273.28Z"/><path class="cls-47" d="M102.84,271.27l-1.55.86a.34.34,0,0,0,0,.57l1.66,1a.61.61,0,0,0,.6,0l1.52-.87a.33.33,0,0,0,0-.57l-1.64-1A.53.53,0,0,0,102.84,271.27Z"/><path class="cls-47" d="M99.41,269.25l-1.54.86a.33.33,0,0,0,0,.57l1.65,1a.63.63,0,0,0,.61,0l1.51-.87a.33.33,0,0,0,0-.57l-1.63-1A.59.59,0,0,0,99.41,269.25Z"/><path class="cls-47" d="M96,267.24l-1.55.86a.34.34,0,0,0,0,.57l1.66,1a.59.59,0,0,0,.6,0l1.52-.86a.33.33,0,0,0,0-.57l-1.63-1A.57.57,0,0,0,96,267.24Z"/><path class="cls-47" d="M140.48,289.48l-1.54.86a.33.33,0,0,0,0,.57l1.65,1a.61.61,0,0,0,.6,0l1.52-.87a.33.33,0,0,0,0-.57l-1.63-1A.57.57,0,0,0,140.48,289.48Z"/><path class="cls-47" d="M137.06,287.47l-1.55.86a.34.34,0,0,0,0,.57l1.66,1a.59.59,0,0,0,.6,0l1.52-.86a.33.33,0,0,0,0-.57l-1.64-1A.55.55,0,0,0,137.06,287.47Z"/><path class="cls-47" d="M133.63,285.45l-1.54.87a.33.33,0,0,0,0,.57l1.66,1a.56.56,0,0,0,.6,0l1.51-.87a.32.32,0,0,0,0-.56l-1.64-1A.57.57,0,0,0,133.63,285.45Z"/><path class="cls-47" d="M130.21,283.44l-1.54.87a.32.32,0,0,0,0,.56l1.65,1a.61.61,0,0,0,.6,0l1.52-.87a.32.32,0,0,0,0-.56l-1.63-1A.59.59,0,0,0,130.21,283.44Z"/><path class="cls-47" d="M126.79,281.42l-1.54.87a.32.32,0,0,0,0,.56l1.65,1a.63.63,0,0,0,.61,0L129,283a.32.32,0,0,0,0-.56l-1.63-1A.57.57,0,0,0,126.79,281.42Z"/><path class="cls-47" d="M123.37,279.41l-1.55.87a.33.33,0,0,0,0,.56l1.66,1a.61.61,0,0,0,.6,0l1.52-.87a.33.33,0,0,0,0-.57l-1.63-1A.57.57,0,0,0,123.37,279.41Z"/><path class="cls-47" d="M119.94,277.4l-1.54.86a.33.33,0,0,0,0,.57l1.66,1a.59.59,0,0,0,.6,0l1.51-.86a.33.33,0,0,0,0-.57l-1.64-1A.57.57,0,0,0,119.94,277.4Z"/><path class="cls-47" d="M116.53,275.38l-1.55.87a.34.34,0,0,0,0,.57l1.66,1a.57.57,0,0,0,.6,0l1.52-.87a.32.32,0,0,0,0-.56l-1.64-1A.57.57,0,0,0,116.53,275.38Z"/><path class="cls-47" d="M113.1,273.37l-1.54.87a.32.32,0,0,0,0,.56l1.65,1a.63.63,0,0,0,.61,0l1.51-.87a.32.32,0,0,0,0-.56l-1.63-1A.59.59,0,0,0,113.1,273.37Z"/><path class="cls-47" d="M109.68,271.35l-1.55.87a.33.33,0,0,0,0,.56l1.66,1a.61.61,0,0,0,.6,0l1.52-.87a.32.32,0,0,0,0-.56l-1.63-1A.57.57,0,0,0,109.68,271.35Z"/><path class="cls-47" d="M106.25,269.34l-1.54.87a.32.32,0,0,0,0,.56l1.66,1a.61.61,0,0,0,.6,0l1.51-.87a.33.33,0,0,0,0-.57l-1.64-1A.57.57,0,0,0,106.25,269.34Z"/><path class="cls-47" d="M102.84,267.33l-1.55.86a.34.34,0,0,0,0,.57l1.66,1a.59.59,0,0,0,.6,0l1.52-.86a.33.33,0,0,0,0-.57l-1.64-1A.55.55,0,0,0,102.84,267.33Z"/><path class="cls-47" d="M99.41,265.31l-1.54.87a.33.33,0,0,0,0,.57l1.65,1a.58.58,0,0,0,.61,0l1.51-.87a.32.32,0,0,0,0-.56l-1.63-1A.59.59,0,0,0,99.41,265.31Z"/><path class="cls-48" d="M61.48,273.71S90.92,259,97.13,256.36c.6-4.92,1.77-11.05,3.41-12.42l.36,8.54c.09,1.41.41,2,1.82,2.22s1.72-1,3.88-1.27c.61,2.13-5.17,6.94-5.17,6.94a119.25,119.25,0,0,1-37.8,26.07Z"/><path class="cls-49" d="M65.09,267.69c9.12-3.73,20.1-9,28.56-10.78a2.82,2.82,0,0,1,2,.3,10.69,10.69,0,0,1,4.88,5.5,3.26,3.26,0,0,1-.8,3.3,100.12,100.12,0,0,1-21.52,16.47c-8.44,4.66-18.35-4.06-14.57-12.92A3.34,3.34,0,0,1,65.09,267.69Z"/><ellipse class="cls-1" cx="61.49" cy="436.29" rx="40.67" ry="22.1"/><path class="cls-7" d="M78.9,416.15c2.41-1.39,4.37-.31,4.37,2.41A9.57,9.57,0,0,1,78.9,426c-2.41,1.39-4.37.31-4.37-2.41A9.53,9.53,0,0,1,78.9,416.15Z"/><path class="cls-7" d="M79.66,428.4c-2.54-.27-3.87-1.37-4.37-2.46l6.18-10.32c1.39.34,3.87,1.51,4.55,3.05Z"/><path class="cls-7" d="M82,418c2.41-1.39,4.36-.32,4.36,2.41A9.54,9.54,0,0,1,82,427.82c-2.42,1.39-4.37.32-4.37-2.41A9.51,9.51,0,0,1,82,418Z"/><path class="cls-5" d="M82,419.21c1.8-1,3.25-.23,3.25,1.79A7.13,7.13,0,0,1,82,426.56c-1.81,1-3.26.23-3.26-1.8A7.13,7.13,0,0,1,82,419.21Z"/><path class="cls-7" d="M32.45,415.45c-2.42-1.39-4.37-.31-4.37,2.41a9.54,9.54,0,0,0,4.37,7.46c2.41,1.39,4.36.32,4.36-2.41A9.53,9.53,0,0,0,32.45,415.45Z"/><path class="cls-7" d="M31.69,427.7c2.54-.27,3.86-1.37,4.37-2.46l-6.19-10.32c-1.38.34-3.86,1.51-4.54,3.05Z"/><path class="cls-7" d="M29.34,417.26c-2.41-1.39-4.37-.32-4.37,2.41a9.55,9.55,0,0,0,4.37,7.45c2.41,1.39,4.38.32,4.38-2.41A9.57,9.57,0,0,0,29.34,417.26Z"/><path class="cls-5" d="M29.34,418.77c-1.67-1-3-.22-3,1.67a6.65,6.65,0,0,0,3,5.17c1.68,1,3,.21,3-1.67A6.64,6.64,0,0,0,29.34,418.77Z"/><path class="cls-7" d="M87.23,445.78c-2.42-1.39-4.38-.32-4.38,2.41a9.54,9.54,0,0,0,4.38,7.45c2.41,1.39,4.36.32,4.36-2.41A9.54,9.54,0,0,0,87.23,445.78Z"/><path class="cls-7" d="M86.47,458c2.54-.27,3.87-1.36,4.37-2.45l-6.19-10.33c-1.38.34-3.86,1.51-4.55,3.05Z"/><path class="cls-7" d="M84.12,447.58c-2.42-1.39-4.37-.32-4.37,2.41a9.56,9.56,0,0,0,4.37,7.46c2.41,1.39,4.36.31,4.36-2.42A9.52,9.52,0,0,0,84.12,447.58Z"/><path class="cls-5" d="M84.12,449.12c-1.67-1-3-.22-3,1.66a6.59,6.59,0,0,0,3,5.13c1.66,1,3,.22,3-1.66A6.52,6.52,0,0,0,84.12,449.12Z"/><path class="cls-7" d="M27.67,442.24c2.41-1.39,4.36-.31,4.36,2.41a9.56,9.56,0,0,1-4.36,7.46c-2.42,1.39-4.38.31-4.38-2.41A9.54,9.54,0,0,1,27.67,442.24Z"/><path class="cls-7" d="M28.42,454.48c-2.54-.26-3.86-1.36-4.37-2.45l6.19-10.32c1.38.33,3.86,1.51,4.54,3.05Z"/><path class="cls-7" d="M30.77,444c2.41-1.4,4.37-.32,4.37,2.41a9.55,9.55,0,0,1-4.37,7.45c-2.41,1.39-4.37.32-4.37-2.41A9.55,9.55,0,0,1,30.77,444Z"/><path class="cls-5" d="M30.77,445.39c1.75-1,3.17-.22,3.17,1.76a6.91,6.91,0,0,1-3.17,5.4c-1.76,1-3.17.23-3.17-1.75A6.9,6.9,0,0,1,30.77,445.39Z"/><path class="cls-48" d="M49.07,260.87c4.13,3.81,8.74,4,13.63,2.15a4.83,4.83,0,0,0,3-3.58l4.48-23L50.91,237l-3.57,18.27A6.11,6.11,0,0,0,49.07,260.87Z"/><path class="cls-48" d="M80.73,237.59c-2.22,11.36-5.87,19.12-12.67,18.08-6.63-1-.84-13.88-4.81-18.82-.87-1.08-8.39-1.36-9.32-2.45-3.64-4.24,3.37-23.38,12.92-21.51,6,1.17,12,3.28,14.19,8.94C81.89,224,81,236.07,80.73,237.59Z"/><path class="cls-7" d="M77.85,229.6c-2.95.79-3.87,8.21-4.08,10.41,0,0-1.5.67-2-2s-3.42-6.93-4.58-3.2-4,11.57-5.72,13.91c-1.13,1.51-5.19,3-10.51.74a7.78,7.78,0,0,1-4.49-9c1.86-7.51-4-15.24,4.33-28.25,3.23-5.07,15.84-7.35,24.35.34C77.32,213.73,90.73,226.14,77.85,229.6Z"/><path class="cls-50" d="M70.7,238.91c-.85,3.22-2.18,5.73-4.27,5.18s-3.43-5.49-2.58-8.7,1.79-4.22,3.88-3.67S71.55,235.7,70.7,238.91Z"/><path class="cls-48" d="M71.68,237.68c-.86,3.22-2.18,5.73-4.27,5.18s-4.11-5.2-3.27-8.41,2.47-4.51,4.56-4S72.52,234.47,71.68,237.68Z"/><path class="cls-8" d="M115.9,439.52a2.32,2.32,0,0,1-.27-4l19.49-11.82a.54.54,0,0,1,.55,0l5.09,2.46c1.86.91,1.77,3.59.2,4.93-1.78,1.55-5.09,4.91-14,8.76C123.23,441.42,119.92,441.83,115.9,439.52Z"/><path class="cls-7" d="M115.12,435.6c0-.68-.42-7.41,2-9.39,1.32-1.1,4.13-1.37,6.12-1.5,4.24-.3,13.63-6.13,17-2.47,1.81,2,1.09,5.39.73,6.08-1.58,3-13.29,9.82-16.32,10.66C119.93,440.26,115.06,440.07,115.12,435.6Z"/><path class="cls-8" d="M86.09,417.94a2.38,2.38,0,0,1-.28-4.13l20-12.11a.63.63,0,0,1,.58,0l5.21,2.53c1.9.92,1.81,3.66.21,5.05-1.84,1.58-5.21,5-14.33,9C93.59,419.88,90.21,420.3,86.09,417.94Z"/><path class="cls-7" d="M85.28,413.92c.15-.68-.42-7.59,2-9.61,1.35-1.12,4.22-1.4,6.26-1.54,4.34-.3,14-6.27,17.38-2.53,1.86,2,1.11,5.53.75,6.23-1.62,3.12-13.61,10.06-16.72,10.92C90.22,418.7,84.61,417,85.28,413.92Z"/><path class="cls-38" d="M127.5,429.31c1-7.34,7.64-66.08,5.64-77.34-2.11-12-10.95-15.55-17.31-15.2s-5,29.69-5,29.69l5.58,4.42A58.88,58.88,0,0,0,112.92,387c-.66,9.07,2.83,19.59,1.66,43.19C119.27,435.21,127.42,429.87,127.5,429.31Z"/><path class="cls-38" d="M103.38,352.54c-.79,22-3.65,53.81-3.65,53.81-1.67,3.67-12.06,5-15,1.78,1.81-16.36.66-18.07.58-31a130.88,130.88,0,0,1,2.37-24.5Z"/><path class="cls-38" d="M117.24,337.13s-3.18-1.06-12,2.12-59,23.32-59,23.32L24,350.86c-5.13,40.25,13.62,40.85,23.33,44.35,4.62,1.66,37.43-8.25,45.55-11.43s24.39-14.13,24.39-14.13C126.32,359.45,125.35,348.54,117.24,337.13Z"/><path class="cls-24" d="M50,251.86c24.89,6.71,31.73,21.25,31.73,21.25,2.86,38.19,2.1,60.19,1.58,81.65-.06,2.65-7.22,7.69-9.61,8.83-4.59,2.2-7.65,6.54-17.18,5.39-15.62-1.87-26.44-9.74-29.55-12.62-1.78-1.64-5.62-5.83-5.79-11.83-.37-13.06-1.24-41.19,2.57-71.82C23.74,268,28.11,246,50,251.86Z"/><path class="cls-49" d="M71.11,268.94c3.8-1.15,10.4,2,12.58,5.3,1.61,1.95,3.2,3.91.11,3.13v43.26C76.52,311.49,70,295.2,64.07,284.15,60.94,278.31,64.77,270.86,71.11,268.94Z"/><path class="cls-48" d="M107.94,315.71s32.32-14.47,37.24-19.18l3.61,5.53s-14.62,19.28-38.71,26.37Z"/><path class="cls-24" d="M104,303.79c1.46,5.84,4,7.32,7.51,5.9,9.51-3.89,25.38-10,29.27-11.59a12.86,12.86,0,0,1,6.18,6.62,3.23,3.23,0,0,1-.81,3.28c-4.37,4.43-20.59,19.74-38.79,22.86Z"/><path class="cls-24" d="M106.93,311C103.7,300.32,94.05,287,83.44,274.24c-2.18-3.31-8.78-6.45-12.57-5.3-6.35,1.91-10.18,9.36-7.05,15.21,8.41,15.69,22.82,38.84,47.4,48.05C111.22,332.21,108.37,313.64,106.93,311Z"/><path class="cls-48" d="M143.61,298.14s-1.05-5.59-.37-7.23c.22-.52.62-1.56,2.85-.23.52.31.56-1.12,5.46-3.46.65-.31,2.91.07,3.06,1.51s2.71,1.84,2.89,3.13,1,1.27,1.75,2.13c.52.57-.27,1.65,0,2.23a3,3,0,0,1-.1,2c-.87,1.44-6.76,4.37-10.8,4.23S143.61,298.14,143.61,298.14Z"/><path class="cls-7" d="M23.69,441.14l16.69-12.57a3.67,3.67,0,0,0-.25-6L26,413.62s.3-1.79,3.22-2c2.7-.21,20.74,6.94,23.43,8a15,15,0,0,1,4.22-.58,16,16,0,0,1,1.86.11l0-.09s19.05-7.61,22.28-6.81a4.73,4.73,0,0,1,3.69,3.47L72,422.05a3.67,3.67,0,0,0-.56,6.21l18.36,13.82a3.09,3.09,0,0,1-1,4.53h0a3.07,3.07,0,0,1-3.63-.44l-21-9.72a20.71,20.71,0,0,0-17.48.07l-18.39,8.7a3.09,3.09,0,0,1-4.6-4.08Z"/><path class="cls-21" d="M53.58,422.81c0,1,1.45,1.76,3.24,1.76s3.24-.79,3.24-1.76-1.45-1.75-3.24-1.75S53.58,421.84,53.58,422.81Z"/><rect class="cls-21" x="53.75" y="398.79" width="6.29" height="23.76"/><path class="cls-2" d="M63.44,391.48l44.39-15.85s-13.68,17.19-27.41,22.53-24.23,5-32.43,3a56.33,56.33,0,0,1-20.8-10.11Z"/><path class="cls-2" d="M.38,314.92c1.55,17,4.72,50,6.21,57.51,1.7,8.47,16.87,19.19,29.94,24.57,7.23,3,21.69,2.81,31.35-7.19,0,0-11.35.77-11.35-13.06,0-10.69-.45-32.29.56-45.34s.51-23.45-10.68-32c-16-12.29-31-18.2-36.94-15.25C1.63,288-1.09,298.75.38,314.92Z"/><path class="cls-21" d="M88.36,388.23l7.56-2.85a14.26,14.26,0,0,0,9.54-13.17V334.5h-4.89v37.71a9.71,9.71,0,0,1-6.49,9l-3,1.15a4.44,4.44,0,0,0-2.68,5.91Z"/><path class="cls-21" d="M107.38,343.73c4.25-2.18,9.65-4.06,7-8.13-2.54-3.82-9-5.42-15.08-4.58-7.32,1-45.68,26.69-48.56,30.25s-2,8.31,1,10.17,6.44,1.7,10.34,0S101.78,346.62,107.38,343.73Z"/><path class="cls-2" d="M107.38,341c4.25-2.19,9.65-4.06,7-8.14-2.54-3.81-9-5.42-15.08-4.58-7.32,1-45.68,26.69-48.56,30.26s-2,8.3,1,10.16,6.44,1.7,10.34,0S101.78,343.83,107.38,341Z"/><path class="cls-15" d="M150,198.12a314.47,314.47,0,0,1-21.86-25.23,300.06,300.06,0,0,0-8.06-36c.32-.16.65-.31,1-.48a1.33,1.33,0,0,0,.67-1.35l-.66-4.59a1.28,1.28,0,0,0-1.42-1.09l-4.85-19.89c-.81-4.1-3.5-9-7.67-9.39-7-.63-13.32,7.48-11.89,14.34.68,3.19,2.52,12.56,3.59,18a1.27,1.27,0,0,0-.58,1.26l.85,4.8a1.31,1.31,0,0,0,1.09,1.09l.51.07A169.07,169.07,0,0,0,111.79,173l.08,0c8.8,15.51,22.94,25.08,30.9,29.64C145.39,201.38,148.6,200.23,150,198.12Z"/><path class="cls-3" d="M176.79,208.92c0-.76-3.64-4.46-5.3-7.23,1.7.66,3.42,1.17,3.21.39-.5-1.88-5.81-4.61-7.4-5.4a4,4,0,0,0-.72-.36c-1.29-.45-4.88,1.26-8.87.31-5.06-4-19.49-18.23-26.22-26.43-5.53-1.06-16.19,1-16.19,1C128.24,191.52,151,200.84,153.7,202c2.37,1.57,8.73,7.64,10,8.28,1.79.91,5.22-.26,6.08-.21S176.69,210.37,176.79,208.92Z"/><path class="cls-3" d="M132.12,173.41c-2.34-14-11.55-45.85-18.61-57.72-2-3.36-4.2-5.84-8.13-5.38a8.53,8.53,0,0,0-7.11,10,175.6,175.6,0,0,0,17,50.9C115.35,171.35,127.51,177.43,132.12,173.41Z"/><path class="cls-16" d="M122,131.14l-7-23.5c-1-4.06-4-8.82-8.14-9-7-.27-12.93,8.16-11.13,14.94,1.2,4.54,5.51,21.76,5.51,21.76A42.76,42.76,0,0,0,122,131.14Z"/><path class="cls-5" d="M99.66,132.67l1.09,4.75a1.3,1.3,0,0,0,1.15,1c3,.27,12.54.66,20.67-4.26a1.31,1.31,0,0,0,.6-1.37l-.91-4.56a1.29,1.29,0,0,0-1.71-1c-3.42,1.21-12.38,4.07-19.6,3.82A1.28,1.28,0,0,0,99.66,132.67Z"/><path class="cls-3" d="M205.1,229.69c.83.16,1.73,1,2,2.72a3,3,0,0,1-1,2.71,2.52,2.52,0,0,1,1.44,2.49,4.82,4.82,0,0,1-1.07,2.21,5.49,5.49,0,0,1,1.14,1.83,2.35,2.35,0,0,1-1.06,1.85c-1,.56-3.75.9-3.31-3,.15-1.32-1.43-2.42-1.06-4.21.3-1.42,1-1.54,1-2.6s-.66-1.33-.49-2.55S204.42,229.55,205.1,229.69Z"/><polygon class="cls-51" points="225.66 131.14 226.69 130.53 225.66 129.03 225.66 131.14"/><polygon class="cls-5" points="213.78 99.95 215.57 98.9 215.11 97.07 213.78 97.84 213.78 99.95"/><path class="cls-51" d="M214.48,122.83a1.61,1.61,0,0,0,.8,1.4L226,130.52a.73.73,0,0,0,1.1-.62V104.77a1.63,1.63,0,0,0-.8-1.4l-10.61-6.24a.77.77,0,0,0-1.17.67v25Z"/><path class="cls-5" d="M224.92,103.75l-.66-.41-9.78-3.22V97.63a.77.77,0,0,1,1.16-.67l10.6,6.23h0a.34.34,0,0,1,0,.59l-.18.07A1.21,1.21,0,0,1,224.92,103.75Z"/><path class="cls-43" d="M213.78,123.49a1.62,1.62,0,0,0,.8,1.4l10.69,6.29a.73.73,0,0,0,1.09-.63V105.42a1.63,1.63,0,0,0-.8-1.4l-10.63-6.25a.76.76,0,0,0-1.15.66v25.06Z"/><path class="cls-52" d="M214.71,122.92l10.74,6.23a.13.13,0,0,0,.21-.11V106.46a.48.48,0,0,0-.24-.42l-10.66-6.18a.18.18,0,0,0-.28.16v22.49A.47.47,0,0,0,214.71,122.92Z"/><polygon class="cls-7" points="226.36 114.37 227.06 113.87 227.06 113.53 226.36 114.03 226.36 114.37"/><polygon class="cls-7" points="226.36 115.13 227.06 114.63 227.06 114.28 226.36 114.79 226.36 115.13"/><polygon class="cls-7" points="226.36 115.89 227.06 115.39 227.06 115.05 226.36 115.55 226.36 115.89"/><polygon class="cls-7" points="226.36 116.65 227.06 116.15 227.06 115.81 226.36 116.31 226.36 116.65"/><polygon class="cls-7" points="226.36 117.41 227.06 116.91 227.06 116.57 226.36 117.07 226.36 117.41"/><path class="cls-52" d="M226.66,112.59l.33-.19a.26.26,0,0,0,.07-.1v-2.24a.13.13,0,0,0-.18-.1l-.33.19a.9.9,0,0,1-.19.1v2.24C226.49,112.57,226.58,112.63,226.66,112.59Z"/><polygon class="cls-52" points="227.06 112.59 226.36 112.68 226.36 112.4 227.06 112.31 227.06 112.59"/><polygon class="cls-52" points="227.06 110.25 226.36 110.34 226.36 110.06 227.06 109.97 227.06 110.25"/><path class="cls-53" d="M226.8,112.68l.33-.19s.05-.06-.07-.1v-2.24c.12-.09,0-.14,0-.1l-.33.19a.8.8,0,0,1-.33.1v2.24C226.63,112.66,226.72,112.72,226.8,112.68Z"/><path class="cls-14" d="M208.86,117.6s.9-4.8,3.5-7.16c1.56-1.42,4.1-1,5.69-1.51a.85.85,0,0,1,1.06,1.14l-5.68,6.63Z"/></g></g></svg>